{
    "asset" : {
        "generator" : "Khronos glTF Blender I/O v1.1.46",
        "version" : "2.0"
    },
    "scene" : 0,
    "scenes" : [
        {
            "name" : "Scene",
            "nodes" : [
                0,
                1
            ]
        }
    ],
    "nodes" : [
        {
            "name" : "bed3",
            "rotation" : [
                0.7071068286895752,
                0,
                0,
                0.7071067094802856
            ]
        },
        {
            "mesh" : 0,
            "name" : "bed3.001",
            "rotation" : [
                0.7071068286895752,
                0,
                0,
                0.7071067094802856
            ]
        }
    ],
    "materials" : [
        {
            "doubleSided" : true,
            "emissiveFactor" : [
                0,
                0,
                0
            ],
            "name" : "FrontColor.001",
            "pbrMetallicRoughness" : {
                "baseColorFactor" : [
                    1,
                    1,
                    1,
                    1
                ],
                "metallicFactor" : 0,
                "roughnessFactor" : 1
            }
        },
        {
            "doubleSided" : true,
            "emissiveFactor" : [
                0,
                0,
                0
            ],
            "name" : "_",
            "pbrMetallicRoughness" : {
                "baseColorTexture" : {
                    "index" : 0,
                    "texCoord" : 0
                },
                "metallicFactor" : 0,
                "roughnessFactor" : 1
            }
        },
        {
            "doubleSided" : true,
            "emissiveFactor" : [
                0,
                0,
                0
            ],
            "name" : "Color_D02",
            "pbrMetallicRoughness" : {
                "baseColorFactor" : [
                    1,
                    0.8980389833450317,
                    0.6000000238418579,
                    1
                ],
                "metallicFactor" : 0,
                "roughnessFactor" : 1
            }
        },
        {
            "doubleSided" : true,
            "emissiveFactor" : [
                0,
                0,
                0
            ],
            "name" : "Color_E02",
            "pbrMetallicRoughness" : {
                "baseColorFactor" : [
                    1,
                    1,
                    0.6000000238418579,
                    1
                ],
                "metallicFactor" : 0,
                "roughnessFactor" : 1
            }
        },
        {
            "doubleSided" : true,
            "emissiveFactor" : [
                0,
                0,
                0
            ],
            "name" : "Color_A05",
            "pbrMetallicRoughness" : {
                "baseColorFactor" : [
                    1,
                    0,
                    0,
                    1
                ],
                "metallicFactor" : 0,
                "roughnessFactor" : 1
            }
        },
        {
            "doubleSided" : true,
            "emissiveFactor" : [
                0,
                0,
                0
            ],
            "name" : "Color_M05",
            "pbrMetallicRoughness" : {
                "baseColorFactor" : [
                    0.4470590054988861,
                    0.4470590054988861,
                    0.4470590054988861,
                    1
                ],
                "metallicFactor" : 0,
                "roughnessFactor" : 1
            }
        },
        {
            "doubleSided" : true,
            "emissiveFactor" : [
                0,
                0,
                0
            ],
            "name" : "_1",
            "pbrMetallicRoughness" : {
                "baseColorTexture" : {
                    "index" : 1,
                    "texCoord" : 0
                },
                "metallicFactor" : 0,
                "roughnessFactor" : 1
            }
        }
    ],
    "meshes" : [
        {
            "name" : "bed3.001",
            "primitives" : [
                {
                    "attributes" : {
                        "POSITION" : 0,
                        "NORMAL" : 1,
                        "TEXCOORD_0" : 2
                    },
                    "indices" : 3,
                    "material" : 0
                },
                {
                    "attributes" : {
                        "POSITION" : 4,
                        "NORMAL" : 5,
                        "TEXCOORD_0" : 6
                    },
                    "indices" : 7,
                    "material" : 1
                },
                {
                    "attributes" : {
                        "POSITION" : 8,
                        "NORMAL" : 9,
                        "TEXCOORD_0" : 10
                    },
                    "indices" : 11,
                    "material" : 2
                },
                {
                    "attributes" : {
                        "POSITION" : 12,
                        "NORMAL" : 13,
                        "TEXCOORD_0" : 14
                    },
                    "indices" : 15,
                    "material" : 3
                },
                {
                    "attributes" : {
                        "POSITION" : 16,
                        "NORMAL" : 17,
                        "TEXCOORD_0" : 18
                    },
                    "indices" : 19,
                    "material" : 4
                },
                {
                    "attributes" : {
                        "POSITION" : 20,
                        "NORMAL" : 21,
                        "TEXCOORD_0" : 22
                    },
                    "indices" : 23,
                    "material" : 5
                },
                {
                    "attributes" : {
                        "POSITION" : 24,
                        "NORMAL" : 25,
                        "TEXCOORD_0" : 26
                    },
                    "indices" : 27,
                    "material" : 6
                }
            ]
        }
    ],
    "textures" : [
        {
            "source" : 0
        },
        {
            "source" : 1
        }
    ],
    "images" : [
        {
            "bufferView" : 8,
            "mimeType" : "image/jpeg",
            "name" : "_"
        },
        {
            "bufferView" : 29,
            "mimeType" : "image/jpeg",
            "name" : "_1"
        }
    ],
    "accessors" : [
        {
            "bufferView" : 0,
            "componentType" : 5126,
            "count" : 1443,
            "max" : [
                1.33843994140625,
                0.11835899949073792,
                2.233410100266277e-15
            ],
            "min" : [
                -3.083430051803589,
                -9.149789810180664,
                -0.6899999976158142
            ],
            "type" : "VEC3"
        },
        {
            "bufferView" : 1,
            "componentType" : 5126,
            "count" : 1443,
            "type" : "VEC3"
        },
        {
            "bufferView" : 2,
            "componentType" : 5126,
            "count" : 1443,
            "type" : "VEC2"
        },
        {
            "bufferView" : 3,
            "componentType" : 5123,
            "count" : 3495,
            "type" : "SCALAR"
        },
        {
            "bufferView" : 4,
            "componentType" : 5126,
            "count" : 181,
            "max" : [
                1.33843994140625,
                0.11835899949073792,
                0
            ],
            "min" : [
                -0.8315600156784058,
                -1.5516400337219238,
                -0.6899999976158142
            ],
            "type" : "VEC3"
        },
        {
            "bufferView" : 5,
            "componentType" : 5126,
            "count" : 181,
            "type" : "VEC3"
        },
        {
            "bufferView" : 6,
            "componentType" : 5126,
            "count" : 181,
            "type" : "VEC2"
        },
        {
            "bufferView" : 7,
            "componentType" : 5123,
            "count" : 474,
            "type" : "SCALAR"
        },
        {
            "bufferView" : 9,
            "componentType" : 5126,
            "count" : 776,
            "max" : [
                1.303439974784851,
                0.07835929840803146,
                -0.26499998569488525
            ],
            "min" : [
                -0.7965599894523621,
                -1.5066399574279785,
                -0.2849999964237213
            ],
            "type" : "VEC3"
        },
        {
            "bufferView" : 10,
            "componentType" : 5126,
            "count" : 776,
            "type" : "VEC3"
        },
        {
            "bufferView" : 11,
            "componentType" : 5126,
            "count" : 776,
            "type" : "VEC2"
        },
        {
            "bufferView" : 12,
            "componentType" : 5123,
            "count" : 1794,
            "type" : "SCALAR"
        },
        {
            "bufferView" : 13,
            "componentType" : 5126,
            "count" : 182,
            "max" : [
                1.303439974784851,
                -0.6870599985122681,
                -0.2150000035762787
            ],
            "min" : [
                -0.7965599894523621,
                -0.7470600008964539,
                -0.23499999940395355
            ],
            "type" : "VEC3"
        },
        {
            "bufferView" : 14,
            "componentType" : 5126,
            "count" : 182,
            "type" : "VEC3"
        },
        {
            "bufferView" : 15,
            "componentType" : 5126,
            "count" : 182,
            "type" : "VEC2"
        },
        {
            "bufferView" : 16,
            "componentType" : 5123,
            "count" : 522,
            "type" : "SCALAR"
        },
        {
            "bufferView" : 17,
            "componentType" : 5126,
            "count" : 100,
            "max" : [
                1.278439998626709,
                -0.008040379732847214,
                -0.26499998569488525
            ],
            "min" : [
                -0.77156001329422,
                -1.4186400175094604,
                -0.26499998569488525
            ],
            "type" : "VEC3"
        },
        {
            "bufferView" : 18,
            "componentType" : 5126,
            "count" : 100,
            "type" : "VEC3"
        },
        {
            "bufferView" : 19,
            "componentType" : 5126,
            "count" : 100,
            "type" : "VEC2"
        },
        {
            "bufferView" : 20,
            "componentType" : 5123,
            "count" : 288,
            "type" : "SCALAR"
        },
        {
            "bufferView" : 21,
            "componentType" : 5126,
            "count" : 150,
            "max" : [
                1.2834399938583374,
                -0.6945599913597107,
                -0.2199999988079071
            ],
            "min" : [
                -0.7765600085258484,
                -0.7395600080490112,
                -0.23000000417232513
            ],
            "type" : "VEC3"
        },
        {
            "bufferView" : 22,
            "componentType" : 5126,
            "count" : 150,
            "type" : "VEC3"
        },
        {
            "bufferView" : 23,
            "componentType" : 5126,
            "count" : 150,
            "type" : "VEC2"
        },
        {
            "bufferView" : 24,
            "componentType" : 5123,
            "count" : 432,
            "type" : "SCALAR"
        },
        {
            "bufferView" : 25,
            "componentType" : 5126,
            "count" : 15,
            "max" : [
                1.303439974784851,
                -0.0016406800132244825,
                -0.5547389984130859
            ],
            "min" : [
                1.303439974784851,
                -1.4316400289535522,
                -0.6790149807929993
            ],
            "type" : "VEC3"
        },
        {
            "bufferView" : 26,
            "componentType" : 5126,
            "count" : 15,
            "type" : "VEC3"
        },
        {
            "bufferView" : 27,
            "componentType" : 5126,
            "count" : 15,
            "type" : "VEC2"
        },
        {
            "bufferView" : 28,
            "componentType" : 5123,
            "count" : 39,
            "type" : "SCALAR"
        }
    ],
    "bufferViews" : [
        {
            "buffer" : 0,
            "byteLength" : 17316,
            "byteOffset" : 0
        },
        {
            "buffer" : 0,
            "byteLength" : 17316,
            "byteOffset" : 17316
        },
        {
            "buffer" : 0,
            "byteLength" : 11544,
            "byteOffset" : 34632
        },
        {
            "buffer" : 0,
            "byteLength" : 6990,
            "byteOffset" : 46176
        },
        {
            "buffer" : 0,
            "byteLength" : 2172,
            "byteOffset" : 53168
        },
        {
            "buffer" : 0,
            "byteLength" : 2172,
            "byteOffset" : 55340
        },
        {
            "buffer" : 0,
            "byteLength" : 1448,
            "byteOffset" : 57512
        },
        {
            "buffer" : 0,
            "byteLength" : 948,
            "byteOffset" : 58960
        },
        {
            "buffer" : 0,
            "byteLength" : 12732,
            "byteOffset" : 59908
        },
        {
            "buffer" : 0,
            "byteLength" : 9312,
            "byteOffset" : 72640
        },
        {
            "buffer" : 0,
            "byteLength" : 9312,
            "byteOffset" : 81952
        },
        {
            "buffer" : 0,
            "byteLength" : 6208,
            "byteOffset" : 91264
        },
        {
            "buffer" : 0,
            "byteLength" : 3588,
            "byteOffset" : 97472
        },
        {
            "buffer" : 0,
            "byteLength" : 2184,
            "byteOffset" : 101060
        },
        {
            "buffer" : 0,
            "byteLength" : 2184,
            "byteOffset" : 103244
        },
        {
            "buffer" : 0,
            "byteLength" : 1456,
            "byteOffset" : 105428
        },
        {
            "buffer" : 0,
            "byteLength" : 1044,
            "byteOffset" : 106884
        },
        {
            "buffer" : 0,
            "byteLength" : 1200,
            "byteOffset" : 107928
        },
        {
            "buffer" : 0,
            "byteLength" : 1200,
            "byteOffset" : 109128
        },
        {
            "buffer" : 0,
            "byteLength" : 800,
            "byteOffset" : 110328
        },
        {
            "buffer" : 0,
            "byteLength" : 576,
            "byteOffset" : 111128
        },
        {
            "buffer" : 0,
            "byteLength" : 1800,
            "byteOffset" : 111704
        },
        {
            "buffer" : 0,
            "byteLength" : 1800,
            "byteOffset" : 113504
        },
        {
            "buffer" : 0,
            "byteLength" : 1200,
            "byteOffset" : 115304
        },
        {
            "buffer" : 0,
            "byteLength" : 864,
            "byteOffset" : 116504
        },
        {
            "buffer" : 0,
            "byteLength" : 180,
            "byteOffset" : 117368
        },
        {
            "buffer" : 0,
            "byteLength" : 180,
            "byteOffset" : 117548
        },
        {
            "buffer" : 0,
            "byteLength" : 120,
            "byteOffset" : 117728
        },
        {
            "buffer" : 0,
            "byteLength" : 78,
            "byteOffset" : 117848
        },
        {
            "buffer" : 0,
            "byteLength" : 12820,
            "byteOffset" : 117928
        }
    ],
    "buffers" : [
        {
            "byteLength" : 130748,
            "uri" : "data:application/octet-stream;base64,"
        }
    ]
}
