{
    "asset" : {
        "generator" : "Khronos glTF Blender I/O v1.1.46",
        "version" : "2.0"
    },
    "scene" : 0,
    "scenes" : [
        {
            "name" : "Scene",
            "nodes" : [
                0,
                1,
                2
            ]
        }
    ],
    "nodes" : [
        {
            "name" : "Light",
            "rotation" : [
                0.16907575726509094,
                0.7558803558349609,
                -0.27217137813568115,
                0.570947527885437
            ],
            "translation" : [
                -4.4474287033081055,
                3.9075963497161865,
                -1.0054539442062378
            ]
        },
        {
            "name" : "Camera",
            "rotation" : [
                0.483536034822464,
                0.33687159419059753,
                -0.20870360732078552,
                0.7804827094078064
            ],
            "translation" : [
                7.358891487121582,
                4.958309173583984,
                6.925790786743164
            ]
        },
        {
            "mesh" : 0,
            "name" : "bed.001",
            "rotation" : [
                0.7071068286895752,
                0,
                0,
                0.7071067094802856
            ],
            "translation" : [
                -0.37991005182266235,
                0,
                0.7288028001785278
            ]
        }
    ],
    "materials" : [
        {
            "doubleSided" : true,
            "emissiveFactor" : [
                0,
                0,
                0
            ],
            "name" : "FrontColor.001",
            "pbrMetallicRoughness" : {
                "baseColorTexture" : {
                    "index" : 0,
                    "texCoord" : 0
                },
                "metallicFactor" : 0,
                "roughnessFactor" : 1
            }
        },
        {
            "doubleSided" : true,
            "emissiveFactor" : [
                0,
                0,
                0
            ],
            "name" : "Color_D02.001",
            "pbrMetallicRoughness" : {
                "baseColorFactor" : [
                    1,
                    0.8980389833450317,
                    0.6000000238418579,
                    1
                ],
                "metallicFactor" : 0,
                "roughnessFactor" : 1
            }
        },
        {
            "doubleSided" : true,
            "emissiveFactor" : [
                0,
                0,
                0
            ],
            "name" : "Color_E02.001",
            "pbrMetallicRoughness" : {
                "baseColorFactor" : [
                    1,
                    1,
                    0.6000000238418579,
                    1
                ],
                "metallicFactor" : 0,
                "roughnessFactor" : 1
            }
        },
        {
            "doubleSided" : true,
            "emissiveFactor" : [
                0,
                0,
                0
            ],
            "name" : "Color_M05.001",
            "pbrMetallicRoughness" : {
                "baseColorFactor" : [
                    0.4470590054988861,
                    0.4470590054988861,
                    0.4470590054988861,
                    1
                ],
                "metallicFactor" : 0,
                "roughnessFactor" : 1
            }
        },
        {
            "doubleSided" : true,
            "emissiveFactor" : [
                0,
                0,
                0
            ],
            "name" : "Color_A05.001",
            "pbrMetallicRoughness" : {
                "baseColorFactor" : [
                    1,
                    0,
                    0,
                    1
                ],
                "metallicFactor" : 0,
                "roughnessFactor" : 1
            }
        }
    ],
    "meshes" : [
        {
            "name" : "bed.001",
            "primitives" : [
                {
                    "attributes" : {
                        "POSITION" : 0,
                        "NORMAL" : 1,
                        "TEXCOORD_0" : 2
                    },
                    "indices" : 3,
                    "material" : 0
                },
                {
                    "attributes" : {
                        "POSITION" : 4,
                        "NORMAL" : 5,
                        "TEXCOORD_0" : 6
                    },
                    "indices" : 7,
                    "material" : 1
                },
                {
                    "attributes" : {
                        "POSITION" : 8,
                        "NORMAL" : 9,
                        "TEXCOORD_0" : 10
                    },
                    "indices" : 11,
                    "material" : 2
                },
                {
                    "attributes" : {
                        "POSITION" : 12,
                        "NORMAL" : 13,
                        "TEXCOORD_0" : 14
                    },
                    "indices" : 15,
                    "material" : 3
                },
                {
                    "attributes" : {
                        "POSITION" : 16,
                        "NORMAL" : 17,
                        "TEXCOORD_0" : 18
                    },
                    "indices" : 19,
                    "material" : 4
                }
            ]
        }
    ],
    "textures" : [
        {
            "source" : 0
        }
    ],
    "images" : [
        {
            "bufferView" : 4,
            "mimeType" : "image/jpeg",
            "name" : "WoodFineDark004_Flat"
        }
    ],
    "accessors" : [
        {
            "bufferView" : 0,
            "componentType" : 5126,
            "count" : 1429,
            "max" : [
                1.33843994140625,
                0.11835899949073792,
                2.233410100266277e-15
            ],
            "min" : [
                -0.8315600156784058,
                -1.5516400337219238,
                -0.6899999976158142
            ],
            "type" : "VEC3"
        },
        {
            "bufferView" : 1,
            "componentType" : 5126,
            "count" : 1429,
            "type" : "VEC3"
        },
        {
            "bufferView" : 2,
            "componentType" : 5126,
            "count" : 1429,
            "type" : "VEC2"
        },
        {
            "bufferView" : 3,
            "componentType" : 5123,
            "count" : 3546,
            "type" : "SCALAR"
        },
        {
            "bufferView" : 5,
            "componentType" : 5126,
            "count" : 776,
            "max" : [
                1.303439974784851,
                0.07835929840803146,
                -0.26499998569488525
            ],
            "min" : [
                -0.7965599894523621,
                -1.5066399574279785,
                -0.2849999964237213
            ],
            "type" : "VEC3"
        },
        {
            "bufferView" : 6,
            "componentType" : 5126,
            "count" : 776,
            "type" : "VEC3"
        },
        {
            "bufferView" : 7,
            "componentType" : 5126,
            "count" : 776,
            "type" : "VEC2"
        },
        {
            "bufferView" : 8,
            "componentType" : 5123,
            "count" : 1794,
            "type" : "SCALAR"
        },
        {
            "bufferView" : 9,
            "componentType" : 5126,
            "count" : 182,
            "max" : [
                1.303439974784851,
                -0.6870599985122681,
                -0.2150000035762787
            ],
            "min" : [
                -0.7965599894523621,
                -0.7470600008964539,
                -0.23499999940395355
            ],
            "type" : "VEC3"
        },
        {
            "bufferView" : 10,
            "componentType" : 5126,
            "count" : 182,
            "type" : "VEC3"
        },
        {
            "bufferView" : 11,
            "componentType" : 5126,
            "count" : 182,
            "type" : "VEC2"
        },
        {
            "bufferView" : 12,
            "componentType" : 5123,
            "count" : 522,
            "type" : "SCALAR"
        },
        {
            "bufferView" : 13,
            "componentType" : 5126,
            "count" : 150,
            "max" : [
                1.2834399938583374,
                -0.6945599913597107,
                -0.2199999988079071
            ],
            "min" : [
                -0.7765600085258484,
                -0.7395600080490112,
                -0.23000000417232513
            ],
            "type" : "VEC3"
        },
        {
            "bufferView" : 14,
            "componentType" : 5126,
            "count" : 150,
            "type" : "VEC3"
        },
        {
            "bufferView" : 15,
            "componentType" : 5126,
            "count" : 150,
            "type" : "VEC2"
        },
        {
            "bufferView" : 16,
            "componentType" : 5123,
            "count" : 432,
            "type" : "SCALAR"
        },
        {
            "bufferView" : 17,
            "componentType" : 5126,
            "count" : 100,
            "max" : [
                1.278439998626709,
                -0.008040379732847214,
                -0.26499998569488525
            ],
            "min" : [
                -0.77156001329422,
                -1.4186400175094604,
                -0.26499998569488525
            ],
            "type" : "VEC3"
        },
        {
            "bufferView" : 18,
            "componentType" : 5126,
            "count" : 100,
            "type" : "VEC3"
        },
        {
            "bufferView" : 19,
            "componentType" : 5126,
            "count" : 100,
            "type" : "VEC2"
        },
        {
            "bufferView" : 20,
            "componentType" : 5123,
            "count" : 288,
            "type" : "SCALAR"
        }
    ],
    "bufferViews" : [
        {
            "buffer" : 0,
            "byteLength" : 17148,
            "byteOffset" : 0
        },
        {
            "buffer" : 0,
            "byteLength" : 17148,
            "byteOffset" : 17148
        },
        {
            "buffer" : 0,
            "byteLength" : 11432,
            "byteOffset" : 34296
        },
        {
            "buffer" : 0,
            "byteLength" : 7092,
            "byteOffset" : 45728
        },
        {
            "buffer" : 0,
            "byteLength" : 17435,
            "byteOffset" : 52820
        },
        {
            "buffer" : 0,
            "byteLength" : 9312,
            "byteOffset" : 70256
        },
        {
            "buffer" : 0,
            "byteLength" : 9312,
            "byteOffset" : 79568
        },
        {
            "buffer" : 0,
            "byteLength" : 6208,
            "byteOffset" : 88880
        },
        {
            "buffer" : 0,
            "byteLength" : 3588,
            "byteOffset" : 95088
        },
        {
            "buffer" : 0,
            "byteLength" : 2184,
            "byteOffset" : 98676
        },
        {
            "buffer" : 0,
            "byteLength" : 2184,
            "byteOffset" : 100860
        },
        {
            "buffer" : 0,
            "byteLength" : 1456,
            "byteOffset" : 103044
        },
        {
            "buffer" : 0,
            "byteLength" : 1044,
            "byteOffset" : 104500
        },
        {
            "buffer" : 0,
            "byteLength" : 1800,
            "byteOffset" : 105544
        },
        {
            "buffer" : 0,
            "byteLength" : 1800,
            "byteOffset" : 107344
        },
        {
            "buffer" : 0,
            "byteLength" : 1200,
            "byteOffset" : 109144
        },
        {
            "buffer" : 0,
            "byteLength" : 864,
            "byteOffset" : 110344
        },
        {
            "buffer" : 0,
            "byteLength" : 1200,
            "byteOffset" : 111208
        },
        {
            "buffer" : 0,
            "byteLength" : 1200,
            "byteOffset" : 112408
        },
        {
            "buffer" : 0,
            "byteLength" : 800,
            "byteOffset" : 113608
        },
        {
            "buffer" : 0,
            "byteLength" : 576,
            "byteOffset" : 114408
        }
    ],
    "buffers" : [
        {
            "byteLength" : 114984,
            "uri" : "data:application/octet-stream;base64,"
        }
    ]
}
