{
    "asset" : {
        "generator" : "Khronos glTF Blender I/O v1.1.46",
        "version" : "2.0"
    },
    "scene" : 0,
    "scenes" : [
        {
            "name" : "Scene",
            "nodes" : [
                0,
                1
            ]
        }
    ],
    "nodes" : [
        {
            "name" : "Camera",
            "rotation" : [
                0.483536034822464,
                0.33687159419059753,
                -0.20870360732078552,
                0.7804827094078064
            ],
            "translation" : [
                7.358891487121582,
                4.958309173583984,
                6.925790786743164
            ]
        },
        {
            "mesh" : 0,
            "name" : "bed",
            "rotation" : [
                0.0015851109055802226,
                -0.7071049213409424,
                0.7071050405502319,
                0.0015851105563342571
            ],
            "translation" : [
                0.3208494186401367,
                0,
                -0.7211251258850098
            ]
        }
    ],
    "materials" : [
        {
            "doubleSided" : true,
            "emissiveFactor" : [
                0,
                0,
                0
            ],
            "name" : "raw wood",
            "pbrMetallicRoughness" : {
                "baseColorTexture" : {
                    "index" : 0,
                    "texCoord" : 0
                },
                "metallicFactor" : 0,
                "roughnessFactor" : 1
            }
        },
        {
            "doubleSided" : true,
            "emissiveFactor" : [
                0,
                0,
                0
            ],
            "name" : "colored wood",
            "pbrMetallicRoughness" : {
                "baseColorTexture" : {
                    "index" : 1,
                    "texCoord" : 0
                },
                "metallicFactor" : 0,
                "roughnessFactor" : 0.7916666865348816
            }
        },
        {
            "doubleSided" : true,
            "emissiveFactor" : [
                0,
                0,
                0
            ],
            "name" : "red stripes",
            "pbrMetallicRoughness" : {
                "baseColorFactor" : [
                    0.8000000715255737,
                    0.02266576886177063,
                    0.009034070186316967,
                    1
                ],
                "metallicFactor" : 0,
                "roughnessFactor" : 0.5
            }
        }
    ],
    "meshes" : [
        {
            "name" : "bed",
            "primitives" : [
                {
                    "attributes" : {
                        "POSITION" : 0,
                        "NORMAL" : 1,
                        "TEXCOORD_0" : 2,
                        "COLOR_0" : 3
                    },
                    "indices" : 4,
                    "material" : 0
                },
                {
                    "attributes" : {
                        "POSITION" : 5,
                        "NORMAL" : 6,
                        "TEXCOORD_0" : 7,
                        "COLOR_0" : 8
                    },
                    "indices" : 9,
                    "material" : 1
                },
                {
                    "attributes" : {
                        "POSITION" : 10,
                        "NORMAL" : 11,
                        "TEXCOORD_0" : 12,
                        "COLOR_0" : 13
                    },
                    "indices" : 14,
                    "material" : 2
                }
            ]
        }
    ],
    "textures" : [
        {
            "source" : 0
        },
        {
            "source" : 1
        }
    ],
    "images" : [
        {
            "bufferView" : 5,
            "mimeType" : "image/jpeg",
            "name" : "struktura-eli"
        },
        {
            "bufferView" : 11,
            "mimeType" : "image/jpeg",
            "name" : "WoodFineDark004_COL_3K"
        }
    ],
    "accessors" : [
        {
            "bufferView" : 0,
            "componentType" : 5126,
            "count" : 1427,
            "max" : [
                1.3334399461746216,
                0.11835899949073792,
                2.233410100266277e-15
            ],
            "min" : [
                -0.8315600156784058,
                -1.5486400127410889,
                -0.6590149998664856
            ],
            "type" : "VEC3"
        },
        {
            "bufferView" : 1,
            "componentType" : 5126,
            "count" : 1427,
            "type" : "VEC3"
        },
        {
            "bufferView" : 2,
            "componentType" : 5126,
            "count" : 1427,
            "type" : "VEC2"
        },
        {
            "bufferView" : 3,
            "componentType" : 5126,
            "count" : 1427,
            "type" : "VEC4"
        },
        {
            "bufferView" : 4,
            "componentType" : 5123,
            "count" : 3927,
            "type" : "SCALAR"
        },
        {
            "bufferView" : 6,
            "componentType" : 5126,
            "count" : 735,
            "max" : [
                1.33843994140625,
                0.11835899949073792,
                0
            ],
            "min" : [
                -0.8315600156784058,
                -1.5516400337219238,
                -0.6899999976158142
            ],
            "type" : "VEC3"
        },
        {
            "bufferView" : 7,
            "componentType" : 5126,
            "count" : 735,
            "type" : "VEC3"
        },
        {
            "bufferView" : 8,
            "componentType" : 5126,
            "count" : 735,
            "type" : "VEC2"
        },
        {
            "bufferView" : 9,
            "componentType" : 5126,
            "count" : 735,
            "type" : "VEC4"
        },
        {
            "bufferView" : 10,
            "componentType" : 5123,
            "count" : 1575,
            "type" : "SCALAR"
        },
        {
            "bufferView" : 12,
            "componentType" : 5126,
            "count" : 88,
            "max" : [
                1.178439974784851,
                -0.008040379732847214,
                -0.26499998569488525
            ],
            "min" : [
                -0.6715599894523621,
                -1.4186400175094604,
                -0.26499998569488525
            ],
            "type" : "VEC3"
        },
        {
            "bufferView" : 13,
            "componentType" : 5126,
            "count" : 88,
            "type" : "VEC3"
        },
        {
            "bufferView" : 14,
            "componentType" : 5126,
            "count" : 88,
            "type" : "VEC2"
        },
        {
            "bufferView" : 15,
            "componentType" : 5126,
            "count" : 88,
            "type" : "VEC4"
        },
        {
            "bufferView" : 16,
            "componentType" : 5123,
            "count" : 144,
            "type" : "SCALAR"
        }
    ],
    "bufferViews" : [
        {
            "buffer" : 0,
            "byteLength" : 17124,
            "byteOffset" : 0
        },
        {
            "buffer" : 0,
            "byteLength" : 17124,
            "byteOffset" : 17124
        },
        {
            "buffer" : 0,
            "byteLength" : 11416,
            "byteOffset" : 34248
        },
        {
            "buffer" : 0,
            "byteLength" : 22832,
            "byteOffset" : 45664
        },
        {
            "buffer" : 0,
            "byteLength" : 7854,
            "byteOffset" : 68496
        },
        {
            "buffer" : 0,
            "byteLength" : 20208,
            "byteOffset" : 76352
        },
        {
            "buffer" : 0,
            "byteLength" : 8820,
            "byteOffset" : 96560
        },
        {
            "buffer" : 0,
            "byteLength" : 8820,
            "byteOffset" : 105380
        },
        {
            "buffer" : 0,
            "byteLength" : 5880,
            "byteOffset" : 114200
        },
        {
            "buffer" : 0,
            "byteLength" : 11760,
            "byteOffset" : 120080
        },
        {
            "buffer" : 0,
            "byteLength" : 3150,
            "byteOffset" : 131840
        },
        {
            "buffer" : 0,
            "byteLength" : 1136730,
            "byteOffset" : 134992
        },
        {
            "buffer" : 0,
            "byteLength" : 1056,
            "byteOffset" : 1271724
        },
        {
            "buffer" : 0,
            "byteLength" : 1056,
            "byteOffset" : 1272780
        },
        {
            "buffer" : 0,
            "byteLength" : 704,
            "byteOffset" : 1273836
        },
        {
            "buffer" : 0,
            "byteLength" : 1408,
            "byteOffset" : 1274540
        },
        {
            "buffer" : 0,
            "byteLength" : 288,
            "byteOffset" : 1275948
        }
    ],
    "buffers" : [
        {
            "byteLength" : 1276236,
            "uri" : "data:application/octet-stream;base64,"
        }
    ]
}
